<svg id="Capa_5" data-name="Capa 5" xmlns="http://www.w3.org/2000/svg" viewBox="0 0 1280 720"><defs><style>.cls-1{fill:#fe6f42;}</style></defs><title>Sin título-5</title><path class="cls-1" d="M.89,455.11c8,.91,15.91,1.79,23.85,2.72,7.23.85,14.45,1.75,21.68,2.61,12.42,1.48,24.84,3,37.27,4.39,8.69,1,17.42,1.59,26.08,2.81a111.17,111.17,0,0,1,18.67,3.9c10.68,3.43,21.42,6.12,32.66,6.71,7.75.4,15.59,2,23.23,1.28,23-2.09,45.64-6.72,66.34-17.47,12.5-6.49,24.38-14.2,36.37-21.63,14.45-9,29.84-10.85,46.43-8,22.72,3.86,43,14.88,65,20.88a146.7,146.7,0,0,0,27.22,5.17c12.77,1,24.52-3.4,35.48-9.89A182.92,182.92,0,0,1,538,423.91a162.4,162.4,0,0,1,35.46.76c16.57,1.94,32.06,6.87,47.41,13.13,7.41,3,15.67,4,23.58,5.73,11.85,2.62,23.69,5.27,35.6,7.58,11.09,2.15,22.24,3.92,33.38,5.77,9.3,1.54,18.6,3.11,27.94,4.35,6.8.9,13.66,1.3,20.5,1.88q21.4,1.78,42.81,3.51c1.17.09,2.36.05,3.55.05,14.81,0,29.64.45,44.43-.12,17.4-.67,34.78-2.07,52.15-3.48,10.58-.86,21.19-1.84,31.64-3.67,12.19-2.14,24.2-5.34,36.32-7.94,15.38-3.3,30.78-6.56,46.2-9.65q18.3-3.68,36.69-6.88c11.57-2,23.21-3.64,34.79-5.63,9.13-1.58,18.16-3.85,27.34-5,4.85-.63,10,0,14.88.8,11,1.77,21.94,3.88,32.86,6.07,11.34,2.28,22.61,4.86,33.93,7.22,19.84,4.14,39.67,8.29,59.53,12.27,7.24,1.44,14.58,2.4,21.87,3.58V720.89H.89Z"/></svg>