<svg id="Capa_3" data-name="Capa 3" xmlns="http://www.w3.org/2000/svg" viewBox="0 0 1280 720"><defs><style>.cls-1{fill:#7c0032;}</style></defs><title>Sin título-3</title><path class="cls-1" d="M.89,528c3.85-.14,7.69-.31,11.54-.42,16.25-.47,32.51-.75,48.75-1.41,17.38-.7,34.78-1.36,52.11-2.74,21-1.67,41.92-3.52,62.74-6.31,17.83-2.4,35.63-4.61,53.63-4.17,15,.37,29.81,2.38,44.08,7.74,15.39,5.79,31,4.37,46.26-.73,19.14-6.4,35.94-17.53,53.4-27.28,13.46-7.52,27.25-14.24,42.51-16.77a58,58,0,0,1,32.75,3.56c9.29,3.88,19.81,5.67,29.94,6.49,13.24,1.07,26.68-.43,39.95.47a243,243,0,0,1,36.51,5.31c12.73,2.83,25,7.88,37.69,10.68A495.82,495.82,0,0,0,642.19,511c18,2.06,36.14,2.35,54.18,3.89,3.76.32,7.36,2.69,11,4.15,16.32,6.49,33,7.32,50.22,4.19,18.73-3.4,36-10.59,53.4-17.88,7.62-3.2,12.22-9.31,17.79-14.59,8.56-8.11,19.28-11.48,30.5-12.3,14.57-1.05,29.24-.73,43.87-1.1,5.44-.14,11,.14,16.29-1,7.34-1.59,13.42,2.19,20.1,3.25,10.44,1.65,20.84,3.6,31.33,4.82,23.17,2.7,46.69,2.89,69.25,9.88a43.83,43.83,0,0,1,7.88,2.79c8.62,4.61,18.31,5.07,27.52,7.38,17.66,4.43,35.34,8.73,53,13.21,24.25,6.16,48.76,10,73.88,8.57,9.11-.52,18.23-1.83,27.32-1.61,12.78.32,25.53,1.75,38.3,2.67,4.28.3,8.57.49,12.86.73V720.89H.89Z"/></svg>