<svg id="Capa_4" data-name="Capa 4" xmlns="http://www.w3.org/2000/svg" viewBox="0 0 1280 720"><defs><style>.cls-1{fill:#c92b3f;}</style></defs><title>Sin título-4</title><path class="cls-1" d="M.89,481.78c12.23.29,24.49.31,36.7,1,17.14.91,34.26,2.18,51.37,3.54,12.1,1,24.25,1.79,36.22,3.65,16.7,2.58,33.38,4.6,50.31,4.36a213.55,213.55,0,0,1,21.61.88c14.86,1.31,30.08,1.4,44.38,5,8.59,2.18,14.85-1,21.54-3.1,16.67-5.26,31-15.34,45.5-24.84,13.57-8.89,27.22-17.56,42.82-22.51,4.56-1.44,9.36-2.11,13.89-3.58s8.78-3.7,13.27-5.26A48.43,48.43,0,0,1,404.86,439c11.77,2.5,23.57,5,35.16,8.25,9.08,2.52,17.73,6.56,26.81,9.08C476.74,459.11,486.9,461,497,463a11.85,11.85,0,0,0,6-.89c17.08-6.28,33.8-4,49.91,2.91,14.74,6.34,29,13.88,43.51,20.68,12.81,6,25.93,11.11,40.39,11.17,8,0,15.45-2.45,22.77-5.57,3.12-1.34,6.73-2.45,10-2.27a64.62,64.62,0,0,0,34.23-7.65c13.84-7.26,25.86-16.79,35.24-29.52,1.18-1.59,3.91-2.43,6.08-2.85,14.4-2.8,28.82-5.56,43.29-8,17.12-2.88,34.41-4.87,51.76-3.5,10.55.83,21,3.52,31.45,5.16q12.95,2,26,3.51c11,1.29,22.09,2.29,33.13,3.53,10,1.13,20,2.29,30,3.63,22.56,3,44.6,8.34,65.58,17.26,8,3.4,15.8,5.44,24.57,5.08,12.57-.53,25.19-.52,37.76-.09q20.91.72,41.78,2.69c14.67,1.39,29.36,3,43.88,5.48,6.67,1.13,13.45,2.54,19.54,6.71,8.82,6,19.4,6,29.32,4,13.48-2.73,26.59-7.17,40-10.39,5.76-1.39,11.82-1.55,17.74-2.27V720.89H.89Z"/></svg>