<svg id="Capa_2" data-name="Capa 2" xmlns="http://www.w3.org/2000/svg" viewBox="0 0 1280 720"><defs><style>.cls-1{fill:#530030;}</style></defs><title>Sin título-2</title><path class="cls-1" d="M.89,563.56c9.25,0,17.78-2.85,25.92-6.82,11-5.37,21.64-11.55,32.79-16.59a194.74,194.74,0,0,1,28.14-10.33c11.58-3.2,22.75-.4,31.26,7.88,6.31,6.13,13.7,7.26,21.33,7.88,11,.9,22.15,1,33.23,1,11.53,0,23.05-.55,34.58-.81a106.64,106.64,0,0,1,44,8.4c3.92,1.64,7.35,4.41,11.2,6.24,3.39,1.62,7,3.28,10.64,3.8a149.88,149.88,0,0,0,18.12,1.08c19.67.4,39.36.22,59,1.07A462.15,462.15,0,0,1,429,577c18.23,3.95,37,5.77,55.56,7.84,11.72,1.31,23.57,1.61,35.37,1.82,16.08.29,32.2.71,48.24-.12,19-1,37.94-2.86,56.82-5.07s38-4.89,56.91-8.14c22.67-3.9,45.17-8.78,67.79-12.94,21.16-3.89,42.37-7.53,63.59-11.05C835,545.7,856.86,543,877.54,535a137.45,137.45,0,0,0,32.76-18.22c9.26-6.93,20-9.74,31.36-11,25.12-2.7,48.05,5.24,70.8,14.24,16.87,6.68,33.46,14.3,50.72,19.78,28.37,9,57.12,17.05,86.89,20.21,14.22,1.51,28.48,2.72,42.76,3.52,16.51.92,33.05,1.64,49.58,1.69,12.82,0,25.65-1.05,38.48-1.64V720.89H.89Z"/></svg>