<svg id="Capa_2" data-name="Capa 2" xmlns="http://www.w3.org/2000/svg" viewBox="0 0 292.15 262.23"><title>corazon2</title><path d="M271.27,356.89c31.14-20.73,60.77-44.2,86.42-71.51,19.66-20.95,37.62-44.48,48.77-71.14,8-19.14,12.52-41.16,6.26-61.48-8.06-26.13-32.18-48.73-58.63-55.28-37.54-9.29-73,14-92,45.25h7.78c-9.38-17-25.07-32.78-42.73-40.91-31.45-14.48-65.28-1.33-86,24.75-7.78,9.81-14.08,21.09-16.42,33.5a84,84,0,0,0,.9,33.39c6.09,28.28,22.75,53.73,40.84,75.78,28.23,34.42,63.34,63,100.21,87.65,4.83,3.23,9.34-4.57,4.54-7.78-31.5-21.07-61.33-45-86.95-73-18.95-20.73-36.62-44.42-46-71.17-7-19.82-8.73-41.33,1.61-60.29,14.32-26.27,43.85-46.78,74.58-38,20.07,5.74,37.66,22.56,47.62,40.65a4.55,4.55,0,0,0,7.78,0c15.72-25.89,44.28-47,76-42.28,25.6,3.76,49.94,24.72,57.94,49.36,5.88,18.13,1.93,37.7-5,55-9.73,24.34-25.94,46-43.43,65.31-26,28.67-56.49,53.09-88.66,74.5C261.93,352.31,266.43,360.11,271.27,356.89Z" transform="translate(-123.5 -95.42)"/></svg>